<?xml version="1.0" encoding="utf-8"?>
<svg xmlns="http://www.w3.org/2000/svg"
	xmlns:xlink="http://www.w3.org/1999/xlink"
	width="26px" height="19px" viewBox="0 0 26 19">
<path fillRule="evenodd" d="M 23.85 0.09C 23.85 0.09 9.2 0.09 9.2 0.09 8.19 0.09 7.37 0.92 7.37 1.94 7.37 1.94 7.37 8.41 7.37 8.41 7.37 8.41 20.73 8.41 20.73 8.41 20.73 8.41 15.93 3.56 15.93 3.56 15.57 3.2 15.57 2.62 15.93 2.26 16.29 1.89 16.87 1.89 17.22 2.26 17.22 2.26 23.54 8.64 23.54 8.64 23.73 8.83 23.81 9.08 23.8 9.34 23.81 9.59 23.73 9.84 23.54 10.04 23.54 10.04 17.22 16.42 17.22 16.42 16.87 16.78 16.29 16.78 15.93 16.42 15.57 16.05 15.57 15.47 15.93 15.11 15.93 15.11 20.73 10.26 20.73 10.26 20.73 10.26 7.37 10.26 7.37 10.26 7.37 10.26 7.37 16.73 7.37 16.73 7.37 17.75 8.19 18.58 9.2 18.58 9.2 18.58 23.85 18.58 23.85 18.58 24.87 18.58 25.69 17.76 25.69 16.73 25.69 16.73 25.69 1.94 25.69 1.94 25.69 0.92 24.87 0.09 23.85 0.09ZM 0.96 8.41C 0.46 8.41 0.05 8.83 0.05 9.34 0.05 9.85 0.46 10.26 0.96 10.26 0.96 10.26 7.37 10.26 7.37 10.26 7.37 10.26 7.37 8.41 7.37 8.41 7.37 8.41 0.96 8.41 0.96 8.41Z" fill="rgb(140,75,115)"/></svg>