<?xml version="1.0" encoding="utf-8"?>
<svg xmlns="http://www.w3.org/2000/svg"
	xmlns:xlink="http://www.w3.org/1999/xlink"
	width="20px" height="20px" viewBox="0 0 20 20">
<path fillRule="evenodd" d="M 19.65 18.66C 19.45 18.97 19.11 19.15 18.74 19.15 18.74 19.15 1.58 19.15 1.58 19.15 1.21 19.15 0.86 18.97 0.66 18.66 0.46 18.34 0.43 17.96 0.58 17.62 0.58 17.62 2.77 12.7 2.77 12.7 2.87 12.47 3.04 12.28 3.26 12.17 3.26 12.17 6.66 10.41 6.66 10.41 6.73 10.37 6.82 10.37 6.89 10.43 7.85 11.15 8.98 11.53 10.16 11.53 11.33 11.53 12.46 11.15 13.42 10.43 13.49 10.37 13.58 10.37 13.66 10.41 13.66 10.41 17.05 12.17 17.05 12.17 17.27 12.28 17.45 12.47 17.55 12.7 17.55 12.7 19.74 17.62 19.74 17.62 19.89 17.96 19.86 18.34 19.65 18.66ZM 10.16 10.16C 7.76 10.16 5.82 7.89 5.82 5.09 5.82 1.21 7.76 0.02 10.16 0.02 12.55 0.02 14.49 1.21 14.49 5.09 14.49 7.89 12.55 10.16 10.16 10.16Z" fill="rgb(141,75,115)"/></svg>